<svg xmlns="http://www.w3.org/2000/svg" viewBox="0 0 270.84 32.18"><defs><style>.cls-1{fill:#81bc06;}.cls-2{fill:#01a4ef;}.cls-3{fill:#757575;}</style></defs><title>Blackstone logo</title><g id="Layer_2" data-name="Layer 2"><g id="Layer_1-2" data-name="Layer 1"><path class="cls-1" d="M259.54,13.07a2.85,2.85,0,0,1-2.15-.8,3,3,0,0,1-.78-2.21,3.37,3.37,0,0,1,.72-2.28,2.49,2.49,0,0,1,2-.82,2.39,2.39,0,0,1,1.84.71,2.66,2.66,0,0,1,.68,1.95v.68H257.9a1.92,1.92,0,0,0,.47,1.32,1.64,1.64,0,0,0,1.23.46,4.25,4.25,0,0,0,1-.1,5.86,5.86,0,0,0,1-.33v1a3.77,3.77,0,0,1-.93.31A5.7,5.7,0,0,1,259.54,13.07Zm-.23-5.16a1.24,1.24,0,0,0-1,.38,1.82,1.82,0,0,0-.43,1.1h2.68a1.64,1.64,0,0,0-.35-1.11A1.21,1.21,0,0,0,259.31,7.91Z"/><path class="cls-1" d="M263,13V5.17h1.28V13Z"/><path class="cls-1" d="M268.54,13h-1.27V6.26H265V5.17h5.87V6.26h-2.3Z"/><path class="cls-2" d="M18.23,31,30.6,24V8.36l-12.46-7L22.63,0,34,6.4V26L22.65,32.18Z"/><path d="M6.3,22.51V10L17,3.88,27.63,10V22.44L17,28.48Z"/><path class="cls-1" d="M11.39,32.18,0,26V6.4L11.41,0,15.9,1.35l-12.45,7V24l12.36,7Z"/><rect class="cls-3" x="238.26" y="6.97" width="13.43" height="2.09"/><rect class="cls-3" x="238.28" y="15.64" width="13.43" height="2.09"/><rect class="cls-3" x="238.28" y="23.94" width="13.43" height="2.09"/><path d="M42,7h5.4q3.79,0,5.5,1.14a4,4,0,0,1,1.69,3.59,4.14,4.14,0,0,1-.94,2.8A4.6,4.6,0,0,1,50.87,16v.13c2.9.5,4.34,2,4.34,4.57a4.9,4.9,0,0,1-1.73,4,7.34,7.34,0,0,1-4.84,1.44H42Zm2.22,8.18h3.66a6,6,0,0,0,3.38-.74,2.85,2.85,0,0,0,1-2.49,2.54,2.54,0,0,0-1.15-2.32,7.26,7.26,0,0,0-3.66-.71H44.2Zm0,1.88v7.14h4a5.65,5.65,0,0,0,3.48-.89,3.3,3.3,0,0,0,1.17-2.8,2.94,2.94,0,0,0-1.2-2.61A6.35,6.35,0,0,0,48,17.05Z"/><path d="M64.67,26.09V7h2.22V24.08h8.42v2Z"/><path d="M114.36,8.7a6.23,6.23,0,0,0-5,2.1,8.43,8.43,0,0,0-1.83,5.74,8.62,8.62,0,0,0,1.76,5.79,6.22,6.22,0,0,0,5,2.05,17.11,17.11,0,0,0,4.56-.72v1.95a14.2,14.2,0,0,1-4.9.74,8.28,8.28,0,0,1-6.51-2.56c-1.53-1.71-2.29-4.13-2.29-7.28a11.44,11.44,0,0,1,1.1-5.17,7.94,7.94,0,0,1,3.19-3.42,9.64,9.64,0,0,1,4.9-1.2,11.81,11.81,0,0,1,5.25,1.09l-.94,1.91A10.08,10.08,0,0,0,114.36,8.7Z"/><path d="M142.2,26.09h-2.61l-7-9.26-2,1.77v7.49h-2.22V7h2.22v9.47L139.29,7h2.62l-7.68,8.3Z"/><path class="cls-3" d="M161,21a4.68,4.68,0,0,1-1.83,3.93,7.92,7.92,0,0,1-5,1.41,12.33,12.33,0,0,1-5.23-.88V23.33a14.74,14.74,0,0,0,2.56.79,13.65,13.65,0,0,0,2.75.28,5.54,5.54,0,0,0,3.34-.84,2.75,2.75,0,0,0,1.12-2.34,3,3,0,0,0-.39-1.63A3.76,3.76,0,0,0,157,18.42a18.07,18.07,0,0,0-2.84-1.21A9.23,9.23,0,0,1,150.32,15a5,5,0,0,1-1.14-3.41A4.24,4.24,0,0,1,150.84,8a6.91,6.91,0,0,1,4.39-1.3,13.07,13.07,0,0,1,5.24,1l-.7,1.94a11.64,11.64,0,0,0-4.59-1,4.48,4.48,0,0,0-2.76.76,2.51,2.51,0,0,0-1,2.1,3.25,3.25,0,0,0,.36,1.63A3.5,3.5,0,0,0,153,14.35a15.61,15.61,0,0,0,2.66,1.17,10.55,10.55,0,0,1,4.13,2.3A4.54,4.54,0,0,1,161,21Z"/><path class="cls-3" d="M176.08,26.09h-2.22V9h-6V7h14.31V9h-6Z"/><path class="cls-3" d="M206.93,16.51a10.49,10.49,0,0,1-2.32,7.21,8.14,8.14,0,0,1-6.44,2.63,8.26,8.26,0,0,1-6.52-2.58c-1.52-1.72-2.29-4.15-2.29-7.28s.77-5.52,2.3-7.23a8.33,8.33,0,0,1,6.53-2.57,8.13,8.13,0,0,1,6.43,2.61A10.53,10.53,0,0,1,206.93,16.51Zm-15.22,0a9,9,0,0,0,1.66,5.89,6.76,6.76,0,0,0,9.59,0,9.22,9.22,0,0,0,1.62-5.9A9.15,9.15,0,0,0,203,10.67a5.79,5.79,0,0,0-4.78-2,5.9,5.9,0,0,0-4.82,2A8.92,8.92,0,0,0,191.71,16.51Z"/><path class="cls-3" d="M231.46,26.09h-2.54l-10.43-16h-.11c.14,1.88.21,3.61.21,5.17V26.09h-2.05V7h2.51l10.41,16h.1c0-.23-.05-1-.11-2.26s-.09-2.19-.07-2.74V7h2.08Z"/><path d="M90.69,6.91H88.82L81.28,26.09h2.24L85.87,20l.79-2L88.9,12.1a25.79,25.79,0,0,0,.83-2.76c.3,1.09.6,2,.89,2.76L92.84,18l.69,2,2.37,6.08h2.3Z"/></g></g></svg>