<svg xmlns="http://www.w3.org/2000/svg" viewBox="0 0 108.88 67.73"><defs><style>.cls-1{fill:#c3c4c9;}</style></defs><title>Boat</title><g id="Layer_2" data-name="Layer 2"><g id="Layer_1-2" data-name="Layer 1"><path class="cls-1" d="M108.76,33.2a2.66,2.66,0,0,0-1.93-1.08H84.33L69.18,14.68a2,2,0,0,0-1.33-.6h-18a.47.47,0,0,0-.12-.37L43,1a1.87,1.87,0,0,0-1.56-1h-9a1.85,1.85,0,0,0-1.8,1.8V14H23.34a2.05,2.05,0,0,0-1.56.84L11.55,32H6.26a1.77,1.77,0,0,0-1.81,1.81A34.59,34.59,0,0,0,7.22,47.4a14.14,14.14,0,0,0-5.42-1,1.81,1.81,0,0,0,0,3.61c4,0,5.9,1.44,8.19,3.25s5,4,10.34,4H22a1.71,1.71,0,0,0,.72-.24c3.73-.49,5.89-2.29,7.94-3.73,2.16-1.69,4.09-3.25,8.18-3.25S44.75,51.49,47,53.3s5.05,4,10.35,4,7.94-2.17,10.34-4c2.17-1.69,4.09-3.25,8.18-3.25s5.9,1.44,8.18,3.25,5.06,4,10.35,4a1.81,1.81,0,1,0,0-3.61,9.52,9.52,0,0,1-3.37-.48l17.33-18A1.89,1.89,0,0,0,108.76,33.2ZM42.83,8.66l2.89,5.54H34.17V8.66ZM34.05,3.73h6.13l.72,1.32H34.05V3.73Zm-9.63,14H67l5.66,6.49H20.45Zm-6,10.1H75.79l3.85,4.33H15.76ZM87.46,51.61,86,50.53c-2.41-1.81-5-4-10.35-4s-7.94,2.16-10.34,4c-2.17,1.68-4.09,3.25-8.18,3.25s-5.9-1.45-8.19-3.25-5.05-4-10.34-4-7.94,2.16-10.35,4c-2,1.56-3.85,3-7.34,3.13a11.17,11.17,0,0,1-7.7-3.37C9.14,46.08,8.18,39,7.94,35.73H102.5Z"/><path class="cls-1" d="M94.44,64.12c-4,0-5.89-1.44-8.18-3.25s-5.05-4-10.35-4-7.94,2.17-10.34,4c-2.17,1.69-4.09,3.25-8.18,3.25s-5.9-1.44-8.18-3.25-5.06-4-10.35-4-7.94,2.17-10.35,4c-2.16,1.69-4.09,3.25-8.18,3.25s-5.89-1.44-8.18-3.25-5.05-4-10.35-4a1.81,1.81,0,0,0,0,3.61c4,0,5.9,1.45,8.19,3.25s5.17,4,10.34,4,7.94-2.16,10.35-4c2.16-1.68,4.09-3.25,8.18-3.25S44.75,62,47,63.76s5.05,4,10.35,4,7.94-2.16,10.34-4c2.17-1.68,4.09-3.25,8.18-3.25s5.9,1.45,8.18,3.25,5.06,4,10.35,4a1.81,1.81,0,1,0,0-3.61Z"/></g></g></svg>