<svg xmlns="http://www.w3.org/2000/svg" viewBox="0 0 95.74 94.66"><defs><style>.cls-1{fill:#01a4ef;}</style></defs><title>Building</title><g id="Layer_2" data-name="Layer 2"><g id="Layer_1-2" data-name="Layer 1"><path class="cls-1" d="M70.49,89.93a1.58,1.58,0,0,1-1.58,1.58H26.32v1.58a1.58,1.58,0,0,1-3.16,0V89.93a1.58,1.58,0,0,1,1.58-1.58H68.91A1.58,1.58,0,0,1,70.49,89.93Z"/><path class="cls-1" d="M43.67,28.4H37.36A1.58,1.58,0,0,0,35.78,30v9.46A1.58,1.58,0,0,0,37.36,41h6.31a1.58,1.58,0,0,0,1.58-1.58V30A1.58,1.58,0,0,0,43.67,28.4Zm-1.58,9.47H38.94V31.56h3.15Z"/><path class="cls-1" d="M84.69,66.27H78.38a1.57,1.57,0,0,0-1.58,1.57v9.47a1.58,1.58,0,0,0,1.58,1.58h6.31a1.58,1.58,0,0,0,1.58-1.58V67.84A1.57,1.57,0,0,0,84.69,66.27Zm-1.58,9.46H80V69.42h3.15Z"/><path class="cls-1" d="M84.69,28.4H78.38A1.58,1.58,0,0,0,76.8,30v9.46A1.58,1.58,0,0,0,78.38,41h6.31a1.58,1.58,0,0,0,1.58-1.58V30A1.58,1.58,0,0,0,84.69,28.4Zm-1.58,9.47H80V31.56h3.15Z"/><path class="cls-1" d="M59.45,28.4H53.14A1.58,1.58,0,0,0,51.56,30v9.46A1.58,1.58,0,0,0,53.14,41h6.31A1.58,1.58,0,0,0,61,39.44V30A1.58,1.58,0,0,0,59.45,28.4Zm-1.58,9.47H54.71V31.56h3.16Z"/><path class="cls-1" d="M94.15,18.93H75.29a1.62,1.62,0,0,0-1.64,1.48,1.58,1.58,0,0,0,1.58,1.68H92.57s0,0,0,0V79.87a1.3,1.3,0,0,0,1.3,1.3h.56a1.31,1.31,0,0,0,1.3-1.3V20.52A1.59,1.59,0,0,0,94.15,18.93Z"/><path class="cls-1" d="M59.45,9.47H53.14A1.57,1.57,0,0,0,51.56,11v9.47a1.58,1.58,0,0,0,1.58,1.58h6.31A1.58,1.58,0,0,0,61,20.51V11A1.57,1.57,0,0,0,59.45,9.47Zm-1.58,9.46H54.71V12.62h3.16Z"/><path class="cls-1" d="M59.45,47.33H53.14a1.58,1.58,0,0,0-1.58,1.58v9.47A1.57,1.57,0,0,0,53.14,60h6.31A1.57,1.57,0,0,0,61,58.38V48.91A1.58,1.58,0,0,0,59.45,47.33ZM57.87,56.8H54.71V50.49h3.16Z"/><path class="cls-1" d="M43.67,9.47H37.36A1.57,1.57,0,0,0,35.78,11v9.47a1.58,1.58,0,0,0,1.58,1.58h6.31a1.58,1.58,0,0,0,1.58-1.58V11A1.57,1.57,0,0,0,43.67,9.47Zm-1.58,9.46H38.94V12.62h3.15Z"/><path class="cls-1" d="M47.28,76.19a1.58,1.58,0,0,0,2.24,2.24,1.59,1.59,0,0,0,0-2.24A1.66,1.66,0,0,0,47.28,76.19Z"/><path class="cls-1" d="M43.67,47.33H37.36a1.58,1.58,0,0,0-1.58,1.58v9.47A1.57,1.57,0,0,0,37.36,60h6.31a1.57,1.57,0,0,0,1.58-1.57V48.91A1.58,1.58,0,0,0,43.67,47.33ZM42.09,56.8H38.94V50.49h3.15Z"/><path class="cls-1" d="M32.63,67.84a1.57,1.57,0,0,0,1.57,1.58h4.74v14.2a1.58,1.58,0,1,0,3.15,0V69.42H54.72v14.2a1.58,1.58,0,1,0,3.15,0V69.42H62.6a1.58,1.58,0,1,0,0-3.15H34.2A1.57,1.57,0,0,0,32.63,67.84Z"/><path class="cls-1" d="M84.69,47.33H78.38a1.58,1.58,0,0,0-1.58,1.58v9.47A1.57,1.57,0,0,0,78.38,60h6.31a1.57,1.57,0,0,0,1.58-1.57V48.91A1.58,1.58,0,0,0,84.69,47.33ZM83.11,56.8H80V50.49h3.15Z"/><path class="cls-1" d="M17.36,66.27H11.05a1.57,1.57,0,0,0-1.58,1.57v9.47a1.58,1.58,0,0,0,1.58,1.58h6.31a1.57,1.57,0,0,0,1.57-1.58V67.84A1.57,1.57,0,0,0,17.36,66.27Zm-1.58,9.46H12.62V69.42h3.16Z"/><path class="cls-1" d="M17.36,28.4H11.05A1.58,1.58,0,0,0,9.47,30v9.46A1.58,1.58,0,0,0,11.05,41h6.31a1.57,1.57,0,0,0,1.57-1.58V30A1.57,1.57,0,0,0,17.36,28.4Zm-1.58,9.47H12.62V31.56h3.16Z"/><path class="cls-1" d="M20.51,18.93H1.58A1.58,1.58,0,0,0,0,20.51V79.59a1.58,1.58,0,0,0,1.58,1.58h0a1.58,1.58,0,0,0,1.58-1.58V22.09H20.45a1.62,1.62,0,0,0,1.64-1.47A1.59,1.59,0,0,0,20.51,18.93Z"/><path class="cls-1" d="M17.36,47.33H11.05a1.58,1.58,0,0,0-1.58,1.58v9.47A1.57,1.57,0,0,0,11.05,60h6.31a1.57,1.57,0,0,0,1.57-1.57V48.91A1.57,1.57,0,0,0,17.36,47.33ZM15.78,56.8H12.62V50.49h3.16Z"/><path class="cls-1" d="M68.92,0h-41a1.57,1.57,0,0,0-1.57,1.58v82a1.58,1.58,0,1,0,3.15,0V3.16H67.34V83.62a1.58,1.58,0,1,0,3.15,0v-82A1.57,1.57,0,0,0,68.92,0Z"/></g></g></svg>