<svg xmlns="http://www.w3.org/2000/svg" viewBox="0 0 28.13 30.4"><defs><style>.cls-1{fill:#caccdb;}</style></defs><title>Configuration_notactive</title><g id="Layer_2" data-name="Layer 2"><g id="Layer_1-2" data-name="Layer 1"><path class="cls-1" d="M22.83,14.83H20.55V4.62a2.26,2.26,0,0,0-1.64-2.24,2.67,2.67,0,0,0-.69-.09H10.08a.77.77,0,0,0-.69.43,1.72,1.72,0,0,0-.22.86c0,.53,0,1.07,0,1.6,0,.91,0,1.83,0,2.74A1.13,1.13,0,0,1,7.92,9.13l-4.16,0a3.15,3.15,0,0,0-.9.19.81.81,0,0,0-.56.74,2.81,2.81,0,0,0,0,.29V25A2.29,2.29,0,0,0,4.1,27.35a3,3,0,0,0,.6,0H16v2.29H4.6A4.58,4.58,0,0,1,.05,25.75,6.28,6.28,0,0,1,0,25C0,19.82,0,14.64,0,9.46a3.28,3.28,0,0,1,.67-2A15.86,15.86,0,0,1,2.36,5.57l3.91-3.9A8.61,8.61,0,0,1,7.91.37,2.71,2.71,0,0,1,9.28,0c3,0,6,0,9,0a4.44,4.44,0,0,1,3.92,2.16,4.4,4.4,0,0,1,.69,2.42v10.1A.71.71,0,0,1,22.83,14.83Z"/><path class="cls-1" d="M18.9,30.39l-1.71-.71.18-.76.3-1.29a.15.15,0,0,0-.06-.18c-.32-.32-.65-.64-1-1a.2.2,0,0,0-.21-.07l-1.88.42a.17.17,0,0,1-.22-.11c-.2-.53-.42-1-.63-1.58l.14-.09,1.63-1a.18.18,0,0,0,.09-.2c0-.45,0-.89,0-1.34,0-.1,0-.15-.1-.2l-1.6-1-.15-.11.45-1.07c.07-.17.15-.34.21-.52a.13.13,0,0,1,.18-.09l1.86.45a.22.22,0,0,0,.26-.08c.31-.32.63-.63.95-.94a.16.16,0,0,0,.07-.19c-.15-.68-.3-1.35-.45-2.05L19,16l.09.15c.33.53.66,1.06,1,1.59a.23.23,0,0,0,.24.13c.45,0,.9,0,1.35,0a.17.17,0,0,0,.17-.1l1-1.61.11-.16,1.7.71q-.14.62-.27,1.2c-.06.28-.13.57-.19.85,0,.09,0,.14.07.21.32.32.64.64.95,1a.17.17,0,0,0,.19,0l2.05-.47.71,1.71-.48.3-1.32.83a.16.16,0,0,0-.08.18c0,.45,0,.89,0,1.34,0,.1,0,.15.1.2l1.63,1,.15.09-.71,1.71c-.67-.15-1.32-.29-2-.45a.29.29,0,0,0-.34.12c-.28.3-.58.59-.88.87-.08.07-.11.12-.08.22.15.63.29,1.26.44,1.88,0,.12,0,.18-.11.22l-1.57.64L22.6,30c-.27-.44-.55-.88-.83-1.32a.19.19,0,0,0-.21-.11c-.44,0-.88,0-1.33,0a.18.18,0,0,0-.19.09c-.35.54-.7,1.08-1,1.62C19,30.29,18.93,30.33,18.9,30.39Zm4.6-7.18a2.58,2.58,0,1,0-2.59,2.57A2.58,2.58,0,0,0,23.5,23.21Z"/><path class="cls-1" d="M17.12,10.29v2.27H5.73V10.29Z"/><path class="cls-1" d="M15.85,16v2.26H5.73V16Z"/><path class="cls-1" d="M13.7,21.7V24h-8V21.7Z"/></g></g></svg>