<svg xmlns="http://www.w3.org/2000/svg" xmlns:xlink="http://www.w3.org/1999/xlink" viewBox="0 0 87.59 87.59"><defs><style>.cls-1{fill:none;}.cls-2{clip-path:url(#clip-path);}.cls-3{fill:#01a4ef;}.cls-4{fill:#fff;}</style><clipPath id="clip-path" transform="translate(-158.58)"><path class="cls-1" d="M181.16,43.74A16.87,16.87,0,0,1,198,60.61V190.53a16.87,16.87,0,0,1-16.87,16.88H16.88A16.88,16.88,0,0,1,0,190.53V60.61A16.87,16.87,0,0,1,16.88,43.74"/></clipPath></defs><title>tick</title><g id="Layer_2" data-name="Layer 2"><g id="Layer_1-2" data-name="Layer 1"><g class="cls-2"><circle class="cls-3" cx="43.8" cy="43.8" r="43.8"/></g><path class="cls-4" d="M188.42,56l-9.22,9.21-3.77-3.76a1,1,0,0,1,1.39-1.39l2.38,2.38L187,54.62A1,1,0,0,1,188.42,56Z" transform="translate(-158.58)"/></g></g></svg>