<svg xmlns="http://www.w3.org/2000/svg" viewBox="0 0 56.4 89.04"><defs><style>.cls-1{fill:#c3c4c9;}</style></defs><title>Tower</title><g id="Layer_2" data-name="Layer 2"><g id="Layer_1-2" data-name="Layer 1"><g id="surface1"><path class="cls-1" d="M14.84,89h3.71a.74.74,0,0,0,.74-.74V86.82a.74.74,0,0,0-.74-.74h-.62a.75.75,0,0,1-.71-1l.66-2a10.87,10.87,0,0,1,20.63,0l.66,2a.75.75,0,0,1-.7,1h-.63a.74.74,0,0,0-.74.74V88.3a.74.74,0,0,0,.74.74H55.65a.75.75,0,0,0,.75-.74V86.82a.75.75,0,0,0-.75-.74h-.89a.73.73,0,0,1-.65-.4l-9.5-17.81a.74.74,0,0,1,.65-1.09h0A.74.74,0,0,0,46,66V64.56a.74.74,0,0,0-.74-.74H43.11a.73.73,0,0,1-.69-.49L38.1,51.45a.74.74,0,0,1,.7-1h.53a.74.74,0,0,0,.74-.74V48.23a.74.74,0,0,0-.74-.74H37.57a.74.74,0,0,1-.73-.65l-4-30.49a.09.09,0,0,0,0-.05l-.2-2.92V9.65a2.23,2.23,0,0,0-2.23-2.23h0a.74.74,0,0,1-.74-.74V.74A.74.74,0,0,0,28.94,0H27.46a.75.75,0,0,0-.75.74V6.68a.74.74,0,0,1-.74.74h0a2.23,2.23,0,0,0-2.23,2.23v3.73l-.2,2.92v.05l-4,30.49a.75.75,0,0,1-.74.65H17.07a.75.75,0,0,0-.75.74v1.49a.75.75,0,0,0,.75.74h.53a.74.74,0,0,1,.7,1L14,63.33a.76.76,0,0,1-.7.49H11.13a.74.74,0,0,0-.74.74V66a.74.74,0,0,0,.74.74h0a.75.75,0,0,1,.66,1.09L2.29,85.68a.74.74,0,0,1-.66.4H.74a.74.74,0,0,0-.74.74V88.3A.74.74,0,0,0,.74,89ZM27.46,10.39h1.48a.74.74,0,0,1,.74.74v1.48a.75.75,0,0,1-.74.75H27.46a.76.76,0,0,1-.75-.75V11.13A.75.75,0,0,1,27.46,10.39Zm-.28,5.93h2A.75.75,0,0,1,30,17l3.87,29.68a.74.74,0,0,1-.74.84H23.31a.73.73,0,0,1-.73-.84L26.45,17A.74.74,0,0,1,27.18,16.32ZM22.34,50.46H34.06a.74.74,0,0,1,.7.49l4.31,11.87a.74.74,0,0,1-.69,1H35.81a.74.74,0,0,1-.71-.54L32.59,54.5a1.48,1.48,0,0,0-1.42-1.07H25.23A1.5,1.5,0,0,0,23.8,54.5l-2.5,8.78a.76.76,0,0,1-.72.54H18a.75.75,0,0,1-.7-1L21.64,51A.72.72,0,0,1,22.34,50.46Zm8.84,13.36h-6a.74.74,0,0,1-.71-1l1.69-5.94a.75.75,0,0,1,.72-.53h2.58a.73.73,0,0,1,.71.53l1.7,5.94A.75.75,0,0,1,31.18,63.82Zm-15,3h24a.73.73,0,0,1,.65.4L50.37,85a.74.74,0,0,1-.65,1.09H43.16a.76.76,0,0,1-.71-.51l-1.12-3.39a13.84,13.84,0,0,0-26.26,0l-1.13,3.39a.74.74,0,0,1-.7.51H6.68A.75.75,0,0,1,6,85l9.5-17.81A.74.74,0,0,1,16.18,66.78Z"/></g></g></g></svg>