<svg xmlns="http://www.w3.org/2000/svg" viewBox="0 0 73.87 85.22"><defs><style>.cls-1{fill:#01a4ef;}</style></defs><title>Tree</title><g id="Layer_2" data-name="Layer 2"><g id="Layer_1-2" data-name="Layer 1"><path class="cls-1" d="M59.93,19.88a23.24,23.24,0,0,0-46,0,23.24,23.24,0,1,0,20.5,41.66V85.22h5V61.54a23.24,23.24,0,1,0,20.5-41.66ZM50.64,59.43a18.23,18.23,0,0,1-11.21-3.85V40.31l11.2-5.89L48.31,30l-8.88,4.67V24.84h-5V45.73l-8.87-4.66-2.33,4.42,11.2,5.88v4.21A18.24,18.24,0,1,1,17.1,24l1.52-.54.13-1.62a18.24,18.24,0,0,1,36.38,0l.12,1.61,1.53.55a18.25,18.25,0,0,1-6.14,35.43Z"/></g></g></svg>