<svg xmlns="http://www.w3.org/2000/svg" viewBox="0 0 93.98 62.15"><defs><style>.cls-1{fill:#01a4ef;}</style></defs><title>Vehicle</title><g id="Layer_2" data-name="Layer 2"><g id="Layer_1-2" data-name="Layer 1"><path class="cls-1" d="M22.58,47.13a4.72,4.72,0,1,0,4.72,4.72A4.73,4.73,0,0,0,22.58,47.13Zm0,6a1.29,1.29,0,0,1,0-2.57,1.29,1.29,0,1,1,0,2.57Z"/><path class="cls-1" d="M71.39,47.13a4.72,4.72,0,1,0,4.72,4.72A4.73,4.73,0,0,0,71.39,47.13Zm0,6a1.29,1.29,0,1,1,1.29-1.28A1.28,1.28,0,0,1,71.39,53.13Z"/><path class="cls-1" d="M91.8,43.57V9.91A9.93,9.93,0,0,0,81.89,0H17.57A15.42,15.42,0,0,0,2.18,15.4V43.57A5.43,5.43,0,0,0,0,47.92v.21a5.45,5.45,0,0,0,5.44,5.44h7a10.3,10.3,0,0,0,20.31,0h28.5a10.3,10.3,0,0,0,20.31,0h7A5.45,5.45,0,0,0,94,48.13v-.21A5.43,5.43,0,0,0,91.8,43.57ZM88.36,25.74H83.65a.44.44,0,0,1-.44-.44V12.06a.44.44,0,0,1,.44-.43h4.71ZM3.43,48.13v-.21a2,2,0,0,1,2-2h8.73a10.31,10.31,0,0,0-1.74,4.22h-7A2,2,0,0,1,3.43,48.13ZM22.58,58.72a6.87,6.87,0,1,1,6.87-6.87A6.89,6.89,0,0,1,22.58,58.72Zm38.66-8.59H32.74a10.32,10.32,0,0,0-10.16-8.58,10.17,10.17,0,0,0-4.27.93H5.61V15.4a12,12,0,0,1,12-12H81.89a6.49,6.49,0,0,1,6.24,4.76H83.65a3.88,3.88,0,0,0-3.87,3.87V25.3a3.87,3.87,0,0,0,3.87,3.87h4.71V42.48H75.67a10.3,10.3,0,0,0-14.43,7.65Zm10.15,8.59a6.87,6.87,0,1,1,6.87-6.87A6.88,6.88,0,0,1,71.39,58.72ZM90.54,48.13a2,2,0,0,1-2,2h-7a10.31,10.31,0,0,0-1.74-4.22h8.73a2,2,0,0,1,2,2Z"/><path class="cls-1" d="M74.71,25.3V12.06a3.87,3.87,0,0,0-3.87-3.87H18A8.29,8.29,0,0,0,9.7,16.48V25.3a3.87,3.87,0,0,0,3.87,3.87H70.84A3.87,3.87,0,0,0,74.71,25.3ZM43.92,11.63h13.5V25.74H43.92ZM40.49,25.74H27V11.63h13.5ZM13.13,25.3V16.48A4.85,4.85,0,0,1,18,11.63h5.58V25.74h-10A.44.44,0,0,1,13.13,25.3Zm58.15,0a.44.44,0,0,1-.44.44h-10V11.63h10a.44.44,0,0,1,.44.43Z"/><path class="cls-1" d="M84.59,39.81a1.72,1.72,0,0,0,1.72-1.72V36.57a1.72,1.72,0,1,0-3.43,0v1.52A1.72,1.72,0,0,0,84.59,39.81Z"/></g></g></svg>