<svg xmlns="http://www.w3.org/2000/svg" viewBox="0 0 28.56 27.96"><defs><style>.cls-1{fill:#01a4ef;}.cls-2{fill:#525c68;}</style></defs><title>video_analytics_actrive</title><g id="Layer_2" data-name="Layer 2"><g id="Layer_1-2" data-name="Layer 1"><polygon class="cls-1" points="1.46 6.59 0.13 6.59 0.13 0 6.17 0 6.17 1.33 1.46 1.33 1.46 6.59"/><polygon class="cls-1" points="6.16 27.96 0.13 27.96 0.13 22.86 1.46 22.86 1.46 26.64 6.16 26.64 6.16 27.96"/><polygon class="cls-1" points="28.09 27.96 22.18 27.96 22.18 26.64 26.76 26.64 26.76 23 28.09 23 28.09 27.96"/><polygon class="cls-1" points="28.09 6.54 26.76 6.54 26.76 1.33 22.57 1.33 22.57 0 28.09 0 28.09 6.54"/><rect class="cls-1" y="14.06" width="4.31" height="0.78"/><rect class="cls-1" x="23.19" y="14.06" width="5.37" height="0.78"/><path class="cls-2" d="M23.19,8.43v5.63H4.31v-3.6A2.91,2.91,0,0,1,5.2,8.32a2.92,2.92,0,0,1,2.14-.9h7.43a3.06,3.06,0,0,1,3,3V12.2L22,8a.63.63,0,0,1,.48-.21.52.52,0,0,1,.26.06A.62.62,0,0,1,23.19,8.43Z"/><path class="cls-2" d="M4.31,14.85H23.19v5a.64.64,0,0,1-.41.62.88.88,0,0,1-.26.06.67.67,0,0,1-.48-.21L17.8,16.12v1.75a3,3,0,0,1-3,3H7.34a3,3,0,0,1-3-3Z"/></g></g></svg>